# xmcd
#
# Track frame offsets:
#	150
#	15789
#	32491
#	46265
#	64293
#	79591
#	94265
#	110317
#	127819
#	142297
#	160122
#	172347
#	183871
#	199006
#	215849
#	230618
#	245007
#	262590
#	278643
#	292253
#	308062
#	321266
#
# Disc length: 4484 seconds
#
# Revision: 1
# Processed by: cddbd v1.5.1PL2 Copyright (c) Steve Scherf et al.
# Submitted via: audiograbber 1.83.01
#
DISCID=39118216
DTITLE=Various Artist - CDX Volume 399 - June 2006
DYEAR=2006
DGENRE=Country
TTITLE0=Jason Aldean - Amarillo Sky
TTITLE1=Matt Jenkins - Bad As I Want To
TTITLE2=Julie Roberts - Girl Next Door
TTITLE3=Jodee Messina - It's Too Late To Worry
TTITLE4=Pirates Of The Mississippi - Kickin' Up Dust
TTITLE5=Marty Raybon - Shenandoah Saturday Night
TTITLE6=Billy Gilman - Southern Star
TTITLE7=Neal McCoy - Tailgate
TTITLE8=T. Graham Brown - The Present
TTITLE9=Taylor Swift - Tim McGraw
TTITLE10=Kevin Sharp - You Are The Reason Why
TTITLE11=Van Preston - What Goes Around, Comes Around
TTITLE12=Pete Schlegel - Alcohol Abuse
TTITLE13=The Roys - House Full Of Love
TTITLE14=Paul Parr - The Redneck Of The Woods
TTITLE15=Stephanie Iverson - Real American Idols
TTITLE16=Franck Carillo and The Bandoleros - Red Queen
TTITLE17=Ronnie Baker - Somebody Stole The Sun
TTITLE18=Peyton Rivers - The Power Of Love
TTITLE19=Natalie Howard - You Never Knew Me
TTITLE20=Stacy Burk - I'm Thinking Country
TTITLE21=Shane Keane - She's Got A Bad Attitude
EXTD=
EXTT0=
EXTT1=
EXTT2=
EXTT3=
EXTT4=
EXTT5=
EXTT6=
EXTT7=
EXTT8=
EXTT9=
EXTT10=
EXTT11=
EXTT12=
EXTT13=
EXTT14=
EXTT15=
EXTT16=
EXTT17=
EXTT18=
EXTT19=
EXTT20=
EXTT21=
PLAYORDER=
